<?xml version="1.0" encoding="utf-8"?>
<!-- Svg Vector Icons : http://www.onlinewebfonts.com/icon -->
<!DOCTYPE svg PUBLIC "-//W3C//DTD SVG 1.1//EN" "http://www.w3.org/Graphics/SVG/1.1/DTD/svg11.dtd">
<svg version="1.1" xmlns="http://www.w3.org/2000/svg" xmlns:xlink="http://www.w3.org/1999/xlink" x="0px" y="0px" viewBox="0 0 1000 1000" enable-background="new 0 0 1000 1000" xml:space="preserve">
<metadata> Svg Vector Icons : http://www.onlinewebfonts.com/icon </metadata>
<g><g transform="translate(0.000000,312.000000) scale(0.100000,-0.100000)"><path d="M5459.5-710.3c-1028.4-1724.3-1084.2-1814.6-1114.9-1782c-17.3,19.2-369.1,459.4-778.5,976.5c-411.4,519-765.1,965-790.1,993.8l-42.3,51.9L1420.8-2557.6C698-3705.2,104-4651,100.2-4660.6c-3.8-9.6,61.5-59.6,142.2-111.5l149.9-96.1l40.4,61.5c23.1,34.6,342.2,542.1,711.2,1128.4c367.2,586.3,678.6,1076.5,690.1,1089.9c15.4,17.3,63.4-51.9,194.2-282.6c96.1-169.2,178.8-307.6,184.5-307.6c7.7,0,140.3,138.4,294.1,307.6c155.7,169.2,288.3,307.6,294.1,307.6c5.8,0,148-130.7,317.2-290.3l307.6-290.3l155.7,169.2c86.5,94.2,203.8,221.1,263.4,282.6l105.7,109.6l221.1-274.9c121.1-151.9,353.7-430.6,515.2-617.1c294.1-338.3,294.1-338.3,338.3-305.6c124.9,100,223,188.4,223,199.9c0,7.7-138.4,174.9-307.6,372.9c-169.2,198-307.6,367.2-307.6,378.7c0,17.3,734.3,1270.6,765.1,1303.3c3.8,5.8,134.6-123,288.3-284.5l282.6-294.1l240.3,321c132.7,176.8,249.9,334.5,261.4,351.8c19.2,23.1,80.7-25,384.5-299.9c199.9-180.7,371-330.6,380.6-334.5c9.6-3.8,100,105.7,198,242.2c100,138.4,192.2,261.4,205.7,274.9c19.2,21.1,199.9-280.6,984.2-1637.8c526.7-915,966.9-1662.8,974.6-1664.7c21.2,0,301.8,161.5,301.8,174.9c0,5.8-419.1,736.2-932.3,1624.3C8454.4-2165.4,7704.7-866,7299.1-166.3c-403.7,701.6-740.1,1274.5-745.8,1274.5C6547.5,1108.2,6053.5,289.3,5459.5-710.3z M6993.5-362.3c230.7-401.8,430.6-747.8,442.1-770.8c19.2-34.6,3.8-63.4-103.8-211.5c-69.2-94.2-132.6-173-142.3-176.8c-15.4-5.8-194.1,149.9-693.9,607.4l-51.9,46.1l-255.7-338.3l-257.6-338.3l-163.4,176.9c-90.4,96.1-161.5,182.6-159.5,192.2c19.2,61.5,938.1,1570.5,949.6,1559C6564.8,375.8,6760.9,39.4,6993.5-362.3z M3710.2-2292.3c-1.9-5.8-69.2-84.6-151.9-174.9l-151.9-161.5L3097-2334.6l-311.4,296l-55.7-53.8c-32.7-30.8-142.2-148-246-263.3c-101.9-113.4-192.2-207.6-198-207.6c-13.5,0-209.5,336.4-209.5,355.6c0,9.6,384.5,626.7,609.4,976.5l84.6,132.6l471-592.1C3498.8-2015.5,3710.2-2286.6,3710.2-2292.3z"/></g></g>
</svg>